<?xml version="1.0" encoding="UTF-8"?> <svg xmlns="http://www.w3.org/2000/svg" width="150" height="150" viewBox="0 0 150 150" fill="none"><path d="M118.592 66.9658C114.888 66.9658 111.889 69.6116 111.272 73.1392H89.0477V75.785H111.184C111.801 79.3126 114.888 81.9584 118.504 81.9584C122.649 81.9584 126 78.6071 126 74.4621C126 70.3171 122.737 66.9658 118.592 66.9658ZM118.592 79.2245C115.946 79.2245 113.741 77.0197 113.741 74.3739C113.741 71.7282 115.946 69.5234 118.592 69.5234C121.238 69.5234 123.442 71.7282 123.442 74.3739C123.442 77.0197 121.238 79.2245 118.592 79.2245Z" fill="#FF5F46"></path><path d="M34.8982 74.4621C34.8982 78.6071 38.2495 81.9584 42.3945 81.9584C46.0985 81.9584 49.097 79.3126 49.7144 75.785H54.6531V73.1392H49.7144C49.097 69.6116 46.0103 66.9658 42.3945 66.9658C38.2495 66.9658 34.8982 70.3171 34.8982 74.4621ZM47.245 74.4621C47.245 77.1079 45.0402 79.3126 42.3945 79.3126C39.7487 79.3126 37.5439 77.1079 37.5439 74.4621C37.5439 71.8164 39.7487 69.6116 42.3945 69.6116C45.0402 69.6116 47.245 71.7282 47.245 74.4621Z" fill="#FF5F46"></path><path d="M70.0861 51.1807L68.8514 48.7995C67.1758 49.6814 65.3238 50.1224 63.3835 50.1224C57.7393 50.1224 52.8887 46.1537 51.7423 40.5977L49.1847 41.1268C50.5958 47.8294 56.5928 52.7681 63.4717 52.7681C65.6765 52.7681 67.9695 52.239 70.0861 51.1807Z" fill="#FF5F46"></path><path d="M58.974 56.8236C57.6512 58.2346 56.0637 59.2048 54.2999 59.9103C52.3597 58.3228 49.9785 57 47.5091 56.2944L46.8036 58.852C51.7423 60.2631 55.7991 63.9671 57.563 68.7295L60.0323 67.7593C59.2386 65.5546 58.0039 63.6143 56.4165 61.8505C58.0921 61.0568 59.5914 59.9985 60.9143 58.5874L58.974 56.8236Z" fill="#FF5F46"></path><path d="M91.693 114.325C90.7229 114.325 89.841 114.501 89.0472 114.854L83.5794 105.947L81.2864 107.358L86.7543 116.265C85.1668 117.676 84.1967 119.616 84.1967 121.909C84.1967 126.054 87.548 129.406 91.693 129.406C95.838 129.406 99.1893 126.054 99.1893 121.909C99.1893 117.764 95.838 114.325 91.693 114.325ZM91.693 126.584C89.0472 126.584 86.8424 124.379 86.8424 121.733C86.8424 119.087 89.0472 116.883 91.693 116.883C94.3387 116.883 96.5435 119.087 96.5435 121.733C96.5435 124.379 94.3387 126.584 91.693 126.584Z" fill="#FF5F46"></path><path d="M74.4077 96.5991C74.4077 103.302 68.9398 108.681 62.3254 108.681C61.3553 108.681 60.4734 108.593 59.5915 108.329L58.9741 110.886C60.0324 111.151 61.1789 111.239 62.3254 111.239C67.3523 111.239 71.7619 108.77 74.4077 104.889V114.414C74.4077 121.116 68.9398 126.496 62.3254 126.496C55.6229 126.496 50.2432 121.028 50.2432 114.414C50.2432 111.063 51.566 107.976 54.0354 105.683L52.1834 103.743C49.9786 105.859 48.4793 108.505 47.9502 111.415C39.3074 111.415 31.1938 102.861 31.1938 93.777C31.1938 91.5722 31.6347 89.3674 32.5166 87.339L32.7812 86.9862C28.7244 84.0759 26.4314 79.4017 26.4314 74.463C26.4314 66.3494 32.5166 59.4704 40.6303 58.5885L40.2775 55.3254C36.838 51.6214 35.6915 45.8889 37.1026 40.5092C38.1609 36.5406 40.7185 33.2775 44.4225 31.2491C47.862 29.3089 51.8306 28.6915 55.3583 29.6616C60.5616 31.0727 64.1774 35.9233 64.7066 41.9203L67.6169 41.6557C67.176 36.276 64.5302 31.6901 60.5616 28.9561C60.8262 25.3403 63.8247 22.4299 67.5287 22.4299C71.4092 22.4299 74.4959 25.6048 74.4959 29.3971V70.4062H77.1416V29.3971C77.1416 24.1056 72.8202 19.7842 67.5287 19.7842C62.8546 19.7842 58.9741 23.1355 58.0922 27.545C57.4749 27.2805 56.7693 27.0159 56.0638 26.8395C51.8306 25.693 47.0683 26.3986 42.9233 28.6915C38.6019 31.1609 35.5152 35.0413 34.2805 39.6273C32.693 45.4479 33.7513 51.5332 37.0144 55.9428C28.9008 58.3239 23.1683 65.732 23.1683 74.463C23.1683 79.5781 25.1967 84.4287 28.7244 87.9563C28.1071 89.8965 27.7543 91.8367 27.7543 93.8652C27.7543 104.713 37.1908 114.59 47.5092 114.767C47.6856 122.792 54.2118 129.23 62.2372 129.23C70.3509 129.23 76.9652 122.616 76.9652 114.502V78.4316H74.3195V96.5991H74.4077Z" fill="#FF5F46"></path><path d="M105.275 50.5613C106.509 51.4432 107.92 51.8842 109.508 51.8842C113.653 51.8842 117.004 48.5329 117.004 44.3879C117.004 40.2429 113.653 36.8916 109.508 36.8916C105.363 36.8916 102.012 40.2429 102.012 44.3879C102.012 45.9753 102.541 47.4746 103.334 48.6211L92.2223 59.9096H80.8456V62.5554H93.3688L105.275 50.5613ZM109.596 39.5374C112.242 39.5374 114.447 41.7421 114.447 44.3879C114.447 47.0336 112.242 49.2384 109.596 49.2384C106.95 49.2384 104.746 47.0336 104.746 44.3879C104.746 41.7421 106.862 39.5374 109.596 39.5374Z" fill="#FF5F46"></path><path d="M86.4014 73.1387H81.1099V75.7844H86.4014V73.1387Z" fill="#FF5F46"></path><path d="M78.4645 73.1387H73.173V75.7844H78.4645V73.1387Z" fill="#FF5F46"></path><path d="M70.5275 73.1387H65.236V75.7844H70.5275V73.1387Z" fill="#FF5F46"></path><path d="M62.5897 73.1387H57.2982V75.7844H62.5897V73.1387Z" fill="#FF5F46"></path><path d="M83.5794 42.9776L88.959 34.2466C89.841 34.5994 90.7229 34.7758 91.693 34.7758C95.838 34.7758 99.1893 31.4245 99.1893 27.2795C99.1893 23.1345 95.838 19.7832 91.693 19.7832C87.548 19.7832 84.1967 23.1345 84.1967 27.2795C84.1967 29.4843 85.1668 31.5127 86.6661 32.8356L81.2864 41.5665L83.5794 42.9776ZM91.693 22.429C94.3387 22.429 96.5435 24.6337 96.5435 27.2795C96.5435 29.9252 94.3387 32.13 91.693 32.13C89.0472 32.13 86.8424 29.9252 86.8424 27.2795C86.8424 24.6337 89.0472 22.429 91.693 22.429Z" fill="#FF5F46"></path><path d="M109.596 97.0384C108.009 97.0384 106.509 97.5675 105.363 98.3612L93.2806 86.3672H80.8456V89.0129H92.2223L103.423 100.213C102.541 101.448 102.1 102.859 102.1 104.446C102.1 108.591 105.451 111.943 109.596 111.943C113.741 111.943 117.092 108.591 117.092 104.446C117.092 100.301 113.653 97.0384 109.596 97.0384ZM109.596 109.297C106.95 109.297 104.746 107.092 104.746 104.446C104.746 101.801 106.95 99.5959 109.596 99.5959C112.242 99.5959 114.447 101.801 114.447 104.446C114.447 107.092 112.242 109.297 109.596 109.297Z" fill="#FF5F46"></path><path d="M62.3251 96.1575C62.4133 95.6284 62.5015 95.1874 62.5015 94.6583C62.5015 90.9542 59.8557 87.9557 56.328 87.3383C57.9155 85.5745 59.2384 83.4579 60.1203 81.0767L57.6509 80.1948C56.4162 83.6343 54.0351 86.4564 51.0365 88.3966C50.9484 88.4848 50.8602 88.4848 50.8602 88.4848C48.3026 90.0723 45.3923 90.9542 42.3056 90.9542C41.7764 90.9542 41.1591 90.9542 40.6299 90.866L40.3654 93.5118C40.9827 93.6 41.6882 93.6 42.3056 93.6C46.0096 93.6 49.5373 92.5417 52.4476 90.6014C53.2413 90.1605 54.0351 89.8959 55.0052 89.8959C57.6509 89.8959 59.8557 92.1007 59.8557 94.7464C59.8557 95.0992 59.8557 95.3638 59.7675 95.7166L62.3251 96.1575Z" fill="#FF5F46"></path></svg> 